<svg width="32" height="32" viewBox="0 0 32 32" fill="none" xmlns="http://www.w3.org/2000/svg">
<rect width="32" height="32" fill="white"/>
<path d="M15.1663 5.60061C21.0729 5.60061 25.6513 10.3699 25.6513 15.5061C25.6513 21.1503 21.299 24.3393 16.9468 24.3393C12.0858 24.3393 9.31615 20.6423 9.51398 17.2276H9.74008C9.68355 21.1503 12.7641 24.0288 16.9468 24.0571C21.2425 24.0853 23.6447 20.7834 23.6447 16.3528C23.6447 12.1761 20.4794 8.98712 15.9576 8.98712C11.6901 8.98712 8.12917 12.1761 8.12917 17.1712C8.12917 21.7712 11.5771 25.6092 16.9468 25.6092C22.2317 25.6092 27.0079 22.138 27.0079 15.9294C27.0079 9.24111 21.723 5.12086 15.4772 4.75399V4.5C22.373 4.86687 27.9688 10.0031 27.9688 16.3245C27.9688 23.154 22.8252 27.5 16.0989 27.5C8.97702 27.5 4.03125 23.0693 4.03125 16.4374C4.03125 10.2853 9.00528 5.60061 15.1663 5.60061Z" fill="black"/>
</svg>
